<svg id="Capa_1" enable-background="new 0 0 512 512" height="512" viewBox="0 0 512 512" width="512" xmlns="http://www.w3.org/2000/svg"><g><path d="m481.19 302.35-24.04 51.52-6.16 13.19c-6.56 14.04-20.65 23.01-36.14 23.01h-317.7c-15.49 0-29.58-8.97-36.14-23.01l-6.16-13.19-24.04-51.52z" fill="#be5e2e"/><path d="m80.81 302.35h-50l24.04 51.52c.002.001.004.001.005.002l6.155 13.188c6.56 14.04 20.65 23.01 36.14 23.01h50c-15.49 0-29.58-8.97-36.14-23.01l-5.116-10.963c13.684-3.595 22.82-9.98 29.076-14.347 1.62-1.14 3.62-2.54 4.34-2.87.16-.03.74-.11 1.96-.11 1.23 0 1.8.08 1.97.11.72.34 2.72 1.73 4.34 2.87 9.13 6.38 24.42 17.07 51.05 17.07 26.64 0 41.92-10.69 51.06-17.08 1.62-1.13 3.62-2.53 4.34-2.86.16-.03.74-.11 1.96-.11 1.23 0 1.8.08 1.97.11.72.33 2.72 1.73 4.34 2.87 9.13 6.38 24.42 17.07 51.05 17.07 26.64 0 41.93-10.69 51.06-17.07 1.62-1.14 3.62-2.54 4.34-2.87.16-.03.74-.11 1.96-.11 1.23 0 1.81.08 1.98.11.71.33 2.71 1.73 4.33 2.87 9.13 6.38 24.42 17.07 51.06 17.07 11.75 0 21.29-2.08 29.07-4.95l24.04-51.52z" fill="#ac4f27"/><path d="m481.19 302.35h-450.38l18.14-38.86 12.06-25.85c6.56-14.03 20.65-23.01 36.14-23.01h317.7c15.49 0 29.58 8.98 36.14 23.01l12.06 25.85z" fill="#ffd88a"/><path d="m463.05 263.49c-13.46 3.61-22.48 9.92-28.67 14.25-1.61 1.13-3.61 2.53-4.33 2.86-.17.03-.74.12-1.97.12s-1.8-.09-1.97-.12c-.72-.33-2.72-1.73-4.34-2.86-9.13-6.39-24.41-17.08-51.06-17.08-26.63 0-41.92 10.69-51.05 17.08-1.62 1.13-3.62 2.53-4.34 2.86-.16.03-.74.12-1.97.12s-1.8-.09-1.97-.12c-.71-.33-2.71-1.73-4.33-2.86-9.13-6.39-24.42-17.08-51.06-17.08s-41.92 10.69-51.05 17.08c-1.62 1.13-3.62 2.53-4.34 2.86-.17.03-.74.12-1.97.12-1.22 0-1.8-.09-1.96-.12-.72-.33-2.72-1.73-4.34-2.86-9.13-6.39-24.42-17.08-51.06-17.08-23.854 0-38.604 8.576-47.984 14.957l17.724-37.977c6.56-14.03 20.65-23.01 36.14-23.01h-50c-15.49 0-29.58 8.98-36.14 23.01l-30.2 64.71h50 400.38z" fill="#fcca7a"/><circle cx="257.536" cy="182.55" fill="#fe636e" r="32.085"/><path d="m272.54 210.91c-4.47 2.38-9.58 3.72-15 3.72-17.72 0-32.09-14.36-32.09-32.08s14.37-32.09 32.09-32.09c5.42 0 10.53 1.34 15 3.72-10.17 5.38-17.09 16.07-17.09 28.37s6.92 22.981 17.09 28.36z" fill="#fd4755"/><path d="m428.08 338.819c-20.34 0-31.471-7.781-39.598-13.465-6.276-4.387-9.425-6.589-17.767-6.589-8.341 0-11.491 2.202-17.764 6.589-8.127 5.682-19.257 13.465-39.598 13.465s-31.471-7.782-39.598-13.465c-6.274-4.387-9.423-6.589-17.763-6.589s-11.489 2.202-17.762 6.589c-8.126 5.682-19.256 13.465-39.596 13.465s-31.47-7.782-39.597-13.465c-6.274-4.387-9.423-6.589-17.763-6.589-8.341 0-11.49 2.202-17.763 6.589-8.127 5.682-19.257 13.465-39.598 13.465-20.339 0-31.47-7.782-39.596-13.465-6.274-4.387-9.423-6.589-17.762-6.589-10.521 0-19.051-8.53-19.051-19.051s8.53-19.051 19.051-19.051c20.339 0 31.47 7.782 39.596 13.465 6.274 4.387 9.423 6.589 17.762 6.589 8.341 0 11.491-2.202 17.764-6.589 8.127-5.682 19.257-13.465 39.597-13.465s31.47 7.782 39.597 13.465c6.274 4.387 9.423 6.589 17.763 6.589s11.489-2.202 17.762-6.589c8.126-5.682 19.256-13.465 39.596-13.465 20.339 0 31.47 7.782 39.597 13.465 6.274 4.387 9.424 6.589 17.764 6.589s11.491-2.202 17.764-6.589c8.127-5.682 19.257-13.465 39.598-13.465s31.472 7.782 39.599 13.465c6.276 4.387 9.425 6.589 17.766 6.589 8.343 0 11.492-2.202 17.767-6.589 8.127-5.683 19.257-13.465 39.598-13.465 10.521 0 19.051 8.53 19.051 19.051s-8.53 19.051-19.051 19.051c-8.342 0-11.492 2.202-17.766 6.589-8.127 5.683-19.258 13.465-39.599 13.465z" fill="#ffc365"/><path d="m94.32 325.35c3.93 2.76 8.55 5.99 14.59 8.6-6.44 2.79-14.49 4.87-25 4.87-20.34 0-31.47-7.78-39.59-13.47-6.28-4.38-9.43-6.58-17.76-6.58-10.53 0-19.06-8.53-19.06-19.06 0-10.52 8.53-19.05 19.06-19.05 15.75 0 25.97 4.67 33.56 9.42-1.67 2.83-2.62 6.12-2.62 9.63 0 10.53 8.53 19.06 19.06 19.06 8.33.001 11.48 2.2 17.76 6.58z" fill="#feb14a"/><path d="m479.885 428.301h-447.77c-13.592 0-24.611-11.019-24.611-24.611v-13.619h496.991v13.619c.001 13.593-11.018 24.611-24.61 24.611z" fill="#98e5fb"/><path d="m82.12 428.301h-50c-13.6 0-24.62-11.02-24.62-24.61v-13.62h50v13.62c0 13.59 11.02 24.61 24.62 24.61z" fill="#62dbfa"/><path d="m504.5 382.571h-55.092c3.381-3.594 6.229-7.74 8.378-12.339l19.768-42.356c2.299-1.203 4.306-1.606 7.886-1.606 14.645 0 26.56-11.914 26.56-26.56 0-14.64-11.915-26.55-26.56-26.55-3.325 0-6.43.196-9.346.541l-18.311-39.238c-7.765-16.604-24.617-27.333-42.935-27.333h-20.76c-4.143 0-7.5 3.357-7.5 7.5s3.357 7.5 7.5 7.5h20.76c12.519 0 24.038 7.335 29.344 18.682l16.973 36.373c-8.619 3.112-14.814 7.441-19.614 10.799-5.904 4.127-7.491 5.236-13.473 5.236s-7.568-1.109-13.478-5.239c-8.437-5.902-21.186-14.82-43.883-14.82-22.705 0-35.453 8.917-43.896 14.822-9.505 6.644-17.465 6.631-26.963-.019-27.137-18.956-60.579-18.993-87.757.019-9.493 6.636-17.455 6.639-26.944-.005-6.048-4.226-14.331-10.013-26.863-12.941-4.024-.938-8.066 1.563-9.01 5.598-.942 4.033 1.563 8.066 5.598 9.01 9.72 2.271 16.076 6.712 21.685 10.63 14.484 10.141 29.65 10.122 44.137-.002 22.108-15.466 48.418-15.481 70.584.003 14.487 10.141 29.65 10.12 44.139-.005 22.1-15.46 48.433-15.491 70.585.008 6.598 4.61 11.363 7.942 22.067 7.942 17.08 0 29.022-15.148 45.287-18.912 3.564-.722 7.553-1.148 12.073-1.148 6.374 0 11.56 5.182 11.56 11.55 0 6.374-5.186 11.56-11.56 11.56-10.7 0-15.463 3.326-22.062 7.936-22.1 15.468-48.45 15.501-70.604-.004-14.483-10.115-29.644-10.113-44.126.004-22.1 15.468-48.461 15.507-70.608-.013-14.484-10.104-29.633-10.102-44.111.013-22.102 15.469-48.464 15.506-70.611-.016-14.485-10.101-29.632-10.097-44.109.016-22.1 15.468-48.462 15.507-70.608-.015-6.594-4.599-11.358-7.921-22.041-7.921-6.374 0-11.56-5.186-11.56-11.56 0-6.368 5.186-11.55 11.56-11.55 4.537 0 8.537.431 12.112 1.159.021.005.042.01.064.015 10.532 2.158 17.344 6.91 23.113 10.94 14.519 10.166 29.682 10.102 44.191-.041 5.219-3.645 11.134-7.776 19.832-10.133 3.998-1.084 6.36-5.203 5.277-9.201-1.085-3.998-5.204-6.36-9.201-5.277-11.221 3.041-18.895 8.4-24.565 12.362-9.506 6.644-17.466 6.63-26.964-.021-4.793-3.348-10.982-7.667-19.587-10.776l16.971-36.371c5.309-11.352 16.828-18.687 29.347-18.687h90.927v21.409c0 4.143 3.357 7.5 7.5 7.5s7.5-3.357 7.5-7.5v-21.409h45.424v21.409c0 4.143 3.357 7.5 7.5 7.5s7.5-3.357 7.5-7.5v-21.409h45.423v21.409c0 4.143 3.357 7.5 7.5 7.5s7.5-3.357 7.5-7.5v-21.409h37.487c4.143 0 7.5-3.357 7.5-7.5s-3.357-7.5-7.5-7.5h-72.88c5.371-6.758 8.591-15.298 8.591-24.581 0-19.269-13.842-35.357-32.103-38.866.005-.118.018-.234.018-.354v-26.06c0-14.375 11.695-26.07 26.07-26.07h14.558c4.143 0 7.5-3.357 7.5-7.5s-3.357-7.5-7.5-7.5h-14.558c-22.646 0-41.07 18.424-41.07 41.07v26.06c0 .119.012.236.018.354-18.261 3.509-32.103 19.597-32.103 38.866 0 9.283 3.22 17.823 8.591 24.581h-129.392c-18.317 0-35.17 10.729-42.938 27.338l-18.308 39.234c-2.916-.346-6.021-.542-9.345-.542-14.645 0-26.56 11.91-26.56 26.55 0 14.646 11.915 26.56 26.56 26.56 3.579 0 5.585.404 7.888 1.61l19.767 42.354c2.148 4.598 4.996 8.742 8.377 12.336h-55.091c-4.143 0-7.5 3.357-7.5 7.5v13.62c0 17.706 14.409 32.11 32.12 32.11h447.76c17.711 0 32.12-14.404 32.12-32.109v-13.62c0-4.143-3.357-7.5-7.5-7.5zm-271.549-200.022c0-13.557 11.028-24.585 24.585-24.585s24.585 11.028 24.585 24.585c0 13.505-10.945 24.498-24.431 24.581h-.308c-13.486-.083-24.431-11.076-24.431-24.581zm246.929 238.251h-447.76c-13.065 0-18.232-12.414-17.12-23.229h224.66c4.143 0 7.5-3.357 7.5-7.5s-3.357-7.5-7.5-7.5h-142.51c-12.522 0-24.042-7.335-29.345-18.683l-10.49-22.476c23.608 9.571 50.171 4.308 70.49-9.915 9.483-6.623 17.443-6.623 26.93-.006 27.114 19.001 60.62 19.022 87.79.007 9.483-6.625 17.443-6.624 26.931-.007 27.111 19.001 60.621 19.023 87.789.007 9.482-6.624 17.452-6.628 26.935-.004 20.256 14.178 47.029 19.434 70.507 9.911l-10.492 22.479c-5.304 11.351-16.823 18.686-29.346 18.686h-142.509c-4.143 0-7.5 3.357-7.5 7.5s3.357 7.5 7.5 7.5h224.66c.049 11.616-2.5 23.255-17.12 23.23z"/></g></svg>